<svg xmlns="http://www.w3.org/2000/svg" viewBox="0 0 64 64" width="64" height="64">
  <defs>
    <linearGradient id="w7bg" x1="0" y1="0" x2="64" y2="64" gradientUnits="userSpaceOnUse">
      <stop offset="0" stop-color="#2A1A0B"/>
      <stop offset="0.5" stop-color="#3D2510"/>
      <stop offset="1" stop-color="#1A100A"/>
    </linearGradient>
    <linearGradient id="w7amber" x1="0" y1="0" x2="0" y2="64" gradientUnits="userSpaceOnUse">
      <stop offset="0" stop-color="#FFC870"/>
      <stop offset="0.5" stop-color="#F5A623"/>
      <stop offset="1" stop-color="#C17216"/>
    </linearGradient>
    <linearGradient id="w7key" x1="0" y1="0" x2="0" y2="64" gradientUnits="userSpaceOnUse">
      <stop offset="0" stop-color="#FFE8B8"/>
      <stop offset="1" stop-color="#E9954D"/>
    </linearGradient>
    <radialGradient id="w7glow" cx="32" cy="28" r="28" gradientUnits="userSpaceOnUse">
      <stop offset="0" stop-color="#FFC870" stop-opacity="0.42"/>
      <stop offset="1" stop-color="#F5A623" stop-opacity="0"/>
    </radialGradient>
  </defs>
  <rect width="64" height="64" rx="12" fill="url(#w7bg)"/>
  <circle cx="32" cy="26" r="26" fill="url(#w7glow)"/>
  <g stroke="#F5A623" stroke-width="0.8" opacity="0.28" fill="none">
    <line x1="0" y1="16" x2="64" y2="16"/>
    <line x1="0" y1="32" x2="64" y2="32"/>
    <line x1="0" y1="48" x2="64" y2="48"/>
    <line x1="16" y1="0" x2="16" y2="64"/>
    <line x1="32" y1="0" x2="32" y2="64"/>
    <line x1="48" y1="0" x2="48" y2="64"/>
  </g>
  <path d="M32 8 L52 15 L52 32 Q52 46 32 56 Q12 46 12 32 L12 15 Z" fill="url(#w7amber)" stroke="#FFE8B8" stroke-width="1.3" stroke-linejoin="round"/>
  <circle cx="32" cy="28" r="6.5" fill="none" stroke="#2A1A0B" stroke-width="2.4"/>
  <rect x="26" y="31" width="12" height="10" rx="1.5" fill="#2A1A0B"/>
  <rect x="30.5" y="34" width="3" height="4.5" rx="0.8" fill="url(#w7key)"/>
  <g fill="#FFE8B8" opacity="0.95">
    <text x="32" y="51" text-anchor="middle" font-family="Georgia, serif" font-weight="700" font-size="6.5" letter-spacing="0.5">W7</text>
  </g>
</svg>
